HIERARCHY
ROOT Hips
{
	OFFSET 0.000000 0.000000 0.000000
	CHANNELS 6 Xposition Yposition Zposition Zrotation Yrotation Xrotation 
	JOINT LHipJoint
	{
		OFFSET 0.000000 0.000000 0.000000
		CHANNELS 3 Zrotation Yrotation Xrotation
		JOINT LeftUpLeg
		{
			OFFSET 8.178360 -10.767780 5.035740
			CHANNELS 3 Zrotation Yrotation Xrotation
			JOINT LeftLeg
			{
				OFFSET 14.688660 -40.356780 0.000000
				CHANNELS 3 Zrotation Yrotation Xrotation
				JOINT LeftFoot
				{
					OFFSET 15.373200 -42.237540 0.000000
					CHANNELS 3 Zrotation Yrotation Xrotation
					JOINT LeftToeBase
					{
						OFFSET 0.945840 -2.598660 13.935300
						CHANNELS 3 Zrotation Yrotation Xrotation
						End Site
						{
							OFFSET 0.000000 0.000000 0.000000
						}
					}
				}
			}
		}
	}
	JOINT RHipJoint
	{
		OFFSET 0.000000 0.000000 0.000000
		CHANNELS 3 Zrotation Yrotation Xrotation
		JOINT RightUpLeg
		{
			OFFSET -7.833120 -10.767780 5.035740
			CHANNELS 3 Zrotation Yrotation Xrotation
			JOINT RightLeg
			{
				OFFSET -15.255180 -41.913300 0.000000
				CHANNELS 3 Zrotation Yrotation Xrotation
				JOINT RightFoot
				{
					OFFSET -15.409560 -42.337380 0.000000
					CHANNELS 3 Zrotation Yrotation Xrotation
					JOINT RightToeBase
					{
						OFFSET -0.988380 -2.715540 14.178900
						CHANNELS 3 Zrotation Yrotation Xrotation
						End Site
						{
							OFFSET 0.000000 0.000000 0.000000
						}
					}
				}
			}
		}
	}
	JOINT LowerBack
	{
		OFFSET 0.000000 0.000000 0.000000
		CHANNELS 3 Zrotation Yrotation Xrotation
		JOINT Spine
		{
			OFFSET 0.169620 12.213540 -1.160280
			CHANNELS 3 Zrotation Yrotation Xrotation
			JOINT Spine1
			{
				OFFSET 0.340320 12.293100 -0.256500
				CHANNELS 3 Zrotation Yrotation Xrotation
				JOINT Neck
				{
					OFFSET 0.000000 0.000000 0.000000
					CHANNELS 3 Zrotation Yrotation Xrotation
					JOINT Neck1
					{
						OFFSET -0.325020 10.477440 1.032120
						CHANNELS 3 Zrotation Yrotation Xrotation
						JOINT Head
						{
							OFFSET 0.624420 10.568160 -0.743820
							CHANNELS 3 Zrotation Yrotation Xrotation
							End Site
							{
								OFFSET 0.000000 0.000000 0.000000
							}
						}
					}
				}
				JOINT LeftShoulder
				{
					OFFSET 0.000000 0.000000 0.000000
					CHANNELS 3 Zrotation Yrotation Xrotation
					JOINT LeftArm
					{
						OFFSET 20.174460 7.205340 -1.867260
						CHANNELS 3 Zrotation Yrotation Xrotation
						JOINT LeftForeArm
						{
							OFFSET 29.898000 -0.000000 -0.000000
							CHANNELS 3 Zrotation Yrotation Xrotation
							JOINT LeftHand
							{
								OFFSET 20.901360 -0.000000 -0.000000
								CHANNELS 3 Zrotation Yrotation Xrotation
								JOINT LeftFingerBase
								{
									OFFSET 0.000000 0.000000 0.000000
									CHANNELS 3 Zrotation Yrotation Xrotation
									JOINT LeftHandIndex1
									{
										OFFSET 4.291560 -0.000000 -0.000000
										CHANNELS 3 Zrotation Yrotation Xrotation
										End Site
										{
											OFFSET 0.000000 0.000000 0.000000
										}
									}
								}
								JOINT LThumb
								{
									OFFSET 0.000000 0.000000 0.000000
									CHANNELS 3 Zrotation Yrotation Xrotation
									End Site
									{
										OFFSET 0.000000 0.000000 0.000000
									}
								}
							}
						}
					}
				}
				JOINT RightShoulder
				{
					OFFSET 0.000000 0.000000 0.000000
					CHANNELS 3 Zrotation Yrotation Xrotation
					JOINT RightArm
					{
						OFFSET -18.819600 8.244300 -2.427900
						CHANNELS 3 Zrotation Yrotation Xrotation
						JOINT RightForeArm
						{
							OFFSET -31.451400 -0.000000 -0.000000
							CHANNELS 3 Zrotation Yrotation Xrotation
							JOINT RightHand
							{
								OFFSET -20.665020 -0.000000 -0.000000
								CHANNELS 3 Zrotation Yrotation Xrotation
								JOINT RightFingerBase
								{
									OFFSET 0.000000 0.000000 0.000000
									CHANNELS 3 Zrotation Yrotation Xrotation
									JOINT RightHandIndex1
									{
										OFFSET -3.735180 -0.000000 -0.000000
										CHANNELS 3 Zrotation Yrotation Xrotation
										End Site
										{
											OFFSET 0.000000 0.000000 0.000000
										}
									}
								}
								JOINT RThumb
								{
									OFFSET 0.000000 0.000000 0.000000
									CHANNELS 3 Zrotation Yrotation Xrotation
									End Site
									{
										OFFSET 0.000000 0.000000 0.000000
									}
								}
							}
						}
					}
				}
			}
		}
	}
}
MOTION
Frames:	8
Frame Time:	0.0333333
43.908774 110.362926 45.718134 179.629156 33.298044 178.510073 -2.456859 1.983294 2.557350 -13.861792 -14.877353 -0.320306 3.718454 12.421559 39.629207 4.330521 -13.023639 48.043993 1.043600 6.496600 18.232400 0.603093 -1.441971 1.137014 16.044192 -1.549323 -13.487967 -1.997619 -9.497747 28.394061 -0.616518 1.748350 5.972226 -0.491500 4.494900 -12.473400 2.695427 4.280160 9.434210 0.921799 6.239986 2.566508 -3.798373 3.293815 -2.092085 -3.355095 11.297657 -10.991909 4.095032 24.704608 36.588865 6.826300 10.427100 18.924400 -6.283437 -2.280029 -1.080224 -82.569666 -1.390147 17.294003 15.221923 -21.485982 -3.403973 -1.250434 -2.630226 5.519085 17.425508 25.791600 9.036500 -7.125000 0.000000 0.000000 -13.977100 59.212800 -4.912800 5.450994 0.241634 -1.378020 79.212412 -7.121789 22.124625 -17.410405 25.775639 -4.292481 0.380512 -0.082183 5.624866 -15.161752 6.966007 -1.941900 7.125000 0.000000 0.000000 8.222200 -22.737900 4.449800 
41.939418 109.912992 47.199060 179.016394 35.496457 178.619077 -2.594656 2.125765 2.853724 -15.298143 -13.740280 2.372626 2.800197 11.282793 35.333016 4.723520 -9.888868 48.398265 1.843800 8.532800 24.344400 0.555246 -1.407535 1.029562 15.192113 -0.154730 -15.675353 -2.081064 -9.772505 29.055352 -0.741405 2.410322 6.262184 -0.320100 3.636500 -10.056200 1.892656 3.844485 8.637698 0.850182 5.532498 2.294309 -3.323003 2.886667 -2.218489 -3.539481 10.998185 -11.122397 4.005312 23.986111 36.703727 6.744400 10.036100 19.131600 -6.200306 -2.316086 -1.104051 -82.189569 -1.736143 18.353515 16.108509 -22.742328 -3.855651 -1.236326 -2.537621 5.133477 18.134742 24.790584 9.083200 -7.125000 0.000000 0.000000 -12.550400 58.293000 -4.123000 5.404405 0.232807 -1.403614 78.493100 -8.885395 21.689281 -16.939282 25.181027 -4.073765 0.374759 -0.080515 6.366974 -14.937504 6.597662 -1.810300 7.125000 0.000000 0.000000 8.404900 -23.129200 4.474500 
39.651852 109.485918 48.650514 178.278281 36.856886 178.428942 -2.723029 2.209145 3.093204 -17.127180 -13.970791 5.078444 1.768807 9.951119 31.148502 3.830664 -12.047354 44.428705 1.494000 7.721200 21.870500 0.515307 -1.362984 0.925576 14.151455 0.819209 -17.415014 -2.070771 -9.856952 29.133652 -0.799420 2.650809 6.523484 -0.247400 3.200300 -8.836900 1.390760 3.170565 8.132848 0.856676 4.585575 2.269983 -2.904944 2.389269 -2.001738 -3.734696 10.780079 -11.888712 3.459336 23.460117 36.685106 6.544400 9.601500 19.519500 -6.123381 -2.414275 -1.093665 -82.211022 -3.106766 18.886039 16.938539 -23.823207 -4.277537 -1.258479 -2.485909 5.252298 18.861432 24.474727 9.347300 -7.125000 0.000000 0.000000 -11.548200 58.098000 -3.733500 5.369814 0.239683 -1.418055 77.297771 -10.210245 21.287444 -16.998671 25.303099 -4.105528 0.380014 -0.080480 5.363106 -14.939811 6.899396 -1.894700 7.125000 0.000000 0.000000 8.387400 -22.814100 4.526300 
37.084590 108.895230 50.302878 178.272711 38.262597 178.585495 -2.827094 2.241193 3.310876 -18.223258 -13.144968 6.592512 0.980301 8.702240 27.428283 3.060910 -14.453340 40.809631 1.459000 7.634400 21.609000 0.476197 -1.304542 0.816337 13.930833 1.258672 -19.297648 -1.987987 -9.791886 28.790069 -0.835721 2.754260 7.027441 -0.261600 3.290200 -9.087800 1.365914 2.552140 8.112232 1.063685 3.755782 2.114785 -2.396192 1.936268 -2.304241 -4.034859 10.541949 -11.569210 3.000014 22.946424 36.492993 6.241200 9.295100 19.413100 -6.026458 -2.475038 -1.105731 -82.527619 -3.916287 19.450962 18.000535 -25.176184 -4.845942 -1.266350 -2.317553 4.842478 20.012152 22.419493 9.197400 -7.125000 0.000000 0.000000 -9.193400 56.106500 -2.519600 5.310463 0.258252 -1.430733 76.184322 -11.866262 19.946376 -17.319873 25.760741 -4.257728 0.380098 -0.072961 4.958007 -14.913100 6.903489 -1.890900 7.125000 0.000000 0.000000 8.407600 -22.815800 4.537100 
34.217772 108.703950 52.130280 178.347582 39.577440 179.028997 -2.886976 2.161072 3.345022 -19.026190 -12.519557 6.404674 0.983412 8.622544 27.448029 1.535830 -16.441738 30.431972 1.405200 7.498300 21.200300 0.468031 -1.236157 0.744102 13.428586 2.782207 -20.609786 -1.703508 -9.327000 27.253481 -0.803287 2.176205 8.804661 -0.128000 2.306600 -6.353800 1.124713 2.031734 8.428967 1.388014 3.034810 1.912942 -1.548150 1.538537 -2.850706 -4.388372 10.207239 -11.352761 2.654068 22.402126 36.455983 6.024100 8.965600 19.439000 -5.932333 -2.559501 -1.114482 -82.981672 -5.135274 20.194666 18.884461 -26.230961 -5.332045 -1.295590 -2.197494 4.043697 21.321272 20.820004 9.214800 -7.125000 0.000000 0.000000 -7.049000 54.605000 -1.669600 5.280673 0.312580 -1.440117 75.164287 -12.986330 17.486276 -17.557165 26.092504 -4.364286 0.376153 -0.099148 4.700617 -14.881184 7.782905 -2.131700 7.125000 0.000000 0.000000 8.399200 -21.888400 4.712200 
31.209594 108.619134 53.935422 177.757098 41.376289 178.876053 -3.008855 2.017469 3.317888 -20.264680 -10.941201 5.123966 0.965821 8.465421 27.078964 0.855329 -18.452131 23.888406 1.124500 6.735900 18.935200 0.486943 -1.140745 0.687640 12.529967 3.274576 -22.016043 -1.338219 -8.651071 25.112691 -0.910069 2.098446 11.408104 -0.242900 3.171900 -8.757700 0.610645 1.733474 8.735315 1.422996 2.595212 1.961731 -1.055143 1.314243 -2.901875 -4.954604 9.923978 -11.192609 2.604672 21.818380 36.313668 5.958400 8.626000 19.257100 -5.847404 -2.607691 -1.111271 -82.954028 -6.468291 21.051138 20.106015 -27.701109 -6.036518 -1.264289 -2.202629 3.592416 21.844656 20.972605 9.501200 -7.125000 0.000000 0.000000 -6.572600 54.863400 -1.597400 5.252384 0.388002 -1.416968 75.160204 -12.675841 13.585804 -17.307820 25.746080 -4.223484 0.407530 -0.061599 4.614864 -15.625410 6.535343 -1.878500 7.125000 0.000000 0.000000 7.881200 -23.179700 4.181200 
28.284426 108.669660 55.664778 176.285078 43.079530 178.163948 -3.184714 1.891273 3.210166 -21.936358 -11.313377 4.222971 0.791414 8.107896 25.957349 0.587232 -19.669597 20.350152 0.713900 5.399700 15.052100 0.507686 -1.063891 0.663052 10.736025 3.887147 -23.322042 -1.022822 -8.019230 23.093600 -0.972568 1.887007 12.740661 -0.638600 5.112500 -14.229800 -0.771671 1.468332 8.731180 1.331099 2.093420 2.063562 -0.265860 1.066545 -2.681460 -5.203973 9.703277 -11.162863 2.597822 21.430460 36.507451 5.936800 8.388800 19.365000 -5.783558 -2.629920 -1.111111 -82.563153 -7.149857 21.886458 21.152865 -28.963422 -6.679211 -1.305592 -2.091224 3.880839 23.168309 19.987884 9.684400 -7.125000 0.000000 0.000000 -4.784500 53.997100 -1.060000 5.262722 0.416646 -1.383055 75.683942 -11.213408 8.298802 -16.474876 24.619671 -3.813711 0.422036 -0.074769 5.674025 -16.008317 6.255429 -1.847100 7.125000 0.000000 0.000000 7.597900 -23.449900 3.980700 
25.566186 108.752070 57.220296 175.558029 44.723106 177.610889 -3.318879 1.796224 3.115531 -22.782066 -11.474202 3.179357 0.694230 7.918126 25.323946 0.482140 -20.280909 18.188675 0.632000 5.086700 14.156000 0.554706 -1.039412 0.645594 9.384840 4.901677 -23.331064 -0.722164 -7.324984 20.893213 -0.581046 -0.212565 11.117001 -1.476800 7.678800 -21.742600 -1.620799 1.212927 8.746709 1.359968 1.668420 2.196869 0.460574 0.856758 -2.426358 -5.606048 9.487963 -10.997019 2.675173 21.011166 36.579275 5.947600 8.152400 19.296200 -5.681349 -2.582198 -1.135358 -82.203843 -6.857578 22.640435 22.830812 -30.939790 -7.768766 -1.026613 -2.254631 1.955614 21.103381 21.334668 9.231700 -7.125000 0.000000 0.000000 -7.675700 55.087100 -1.909500 5.254251 0.416625 -1.351968 76.262137 -10.100172 4.330571 -16.004356 23.964931 -3.585079 0.439192 -0.067921 5.357768 -16.318658 5.893143 -1.775600 7.125000 0.000000 0.000000 7.370200 -23.819500 3.796200 
